RBDS014runT25_grf
version=1
nRows=37
nColumns=19
inDegrees=no
endheader
time	ground_force_r_vx	ground_force_r_vy	ground_force_r_vz	ground_force_r_px	ground_force_r_py	ground_force_r_pz	ground_force_r_mx	ground_force_r_my	ground_force_r_mz	ground_force_l_vx	ground_force_l_vy	ground_force_l_vz	ground_force_l_px	ground_force_l_py	ground_force_l_pz	ground_force_l_mx	ground_force_l_my	ground_force_l_mz
      7.49900000	      0.00000000	      0.00000000	      0.00000000	      0.00000000	      0.00000000	      0.00000000	      0.00000000	      0.00000000	      0.00000000	      0.00000000	      0.00000000	      0.00000000	      0.00000000	      0.00000000	      0.00000000	      0.00000000	      0.00000000	      0.00000000
      7.50000000	      0.00000000	      0.00000000	      0.00000000	      0.00000000	      0.00000000	      0.00000000	      0.00000000	      0.00000000	      0.00000000	      0.00000000	      0.00000000	      0.00000000	      0.00000000	      0.00000000	      0.00000000	      0.00000000	      0.00000000	      0.00000000
      7.50100000	      0.00000000	      0.00000000	      0.00000000	      0.00000000	      0.00000000	      0.00000000	      0.00000000	      0.00000000	      0.00000000	      0.00000000	      0.00000000	      0.00000000	      0.00000000	      0.00000000	      0.00000000	      0.00000000	      0.00000000	      0.00000000
      7.50200000	      0.00000000	      0.00000000	      0.00000000	      0.00000000	      0.00000000	      0.00000000	      0.00000000	      0.00000000	      0.00000000	      0.00000000	      0.00000000	      0.00000000	      0.00000000	      0.00000000	      0.00000000	      0.00000000	      0.00000000	      0.00000000
      7.50300000	      0.00000000	      0.00000000	      0.00000000	      0.00000000	      0.00000000	      0.00000000	      0.00000000	      0.00000000	      0.00000000	      0.00000000	      0.00000000	      0.00000000	      0.00000000	      0.00000000	      0.00000000	      0.00000000	      0.00000000	      0.00000000
      7.50400000	      0.00000000	      0.00000000	      0.00000000	      0.00000000	      0.00000000	      0.00000000	      0.00000000	      0.00000000	      0.00000000	      0.00000000	      0.00000000	      0.00000000	      0.00000000	      0.00000000	      0.00000000	      0.00000000	      0.00000000	      0.00000000
      7.50500000	      0.00000000	      0.00000000	      0.00000000	      0.00000000	      0.00000000	      0.00000000	      0.00000000	      0.00000000	      0.00000000	      0.00000000	      0.00000000	      0.00000000	      0.00000000	      0.00000000	      0.00000000	      0.00000000	      0.00000000	      0.00000000
      7.50600000	      0.00000000	      0.00000000	      0.00000000	      0.00000000	      0.00000000	      0.00000000	      0.00000000	      0.00000000	      0.00000000	      0.00000000	      0.00000000	      0.00000000	      0.00000000	      0.00000000	      0.00000000	      0.00000000	      0.00000000	      0.00000000
      7.50700000	      0.00000000	      0.00000000	      0.00000000	      0.00000000	      0.00000000	      0.00000000	      0.00000000	      0.00000000	      0.00000000	     -4.57453004	      4.94819738	     -0.33023412	      0.21990862	      0.00000000	      0.10385096	      0.00000000	      0.47141810	     -0.00000000
      7.50800000	      0.00000000	      0.00000000	      0.00000000	      0.00000000	      0.00000000	      0.00000000	      0.00000000	      0.00000000	      0.00000000	    -18.29812016	     19.79278950	     -1.32093649	      0.87963449	      0.00000000	      0.41540385	      0.00000000	      1.88567241	     -0.00000000
      7.50900000	      0.00000000	      0.00000000	      0.00000000	      0.00000000	      0.00000000	      0.00000000	      0.00000000	      0.00000000	      0.00000000	    -32.02171027	     34.63738163	     -2.31163886	      1.53936036	      0.00000000	      0.72695673	      0.00000000	      3.29992671	     -0.00000000
      7.51000000	      0.00000000	      0.00000000	      0.00000000	      0.00000000	      0.00000000	      0.00000000	      0.00000000	      0.00000000	      0.00000000	    -45.74530039	     49.48197375	     -3.30234123	      2.19908623	      0.00000000	      1.03850961	      0.00000000	      4.71418102	     -0.00000000
      7.51100000	      0.00000000	      0.00000000	      0.00000000	      0.00000000	      0.00000000	      0.00000000	      0.00000000	      0.00000000	      0.00000000	    -43.17573019	     75.54585648	     -3.74056079	      2.19773177	      0.00000000	      1.03822864	      0.00000000	      4.56717519	     -0.00000000
      7.51200000	      0.00000000	      0.00000000	      0.00000000	      0.00000000	      0.00000000	      0.00000000	      0.00000000	      0.00000000	      0.00000000	    -40.60615999	    101.60973920	     -4.17878036	      2.19637730	      0.00000000	      1.03794766	      0.00000000	      4.42016936	     -0.00000000
      7.51300000	      0.00000000	      0.00000000	      0.00000000	      0.00000000	      0.00000000	      0.00000000	      0.00000000	      0.00000000	      0.00000000	    -38.03658979	    127.67362193	     -4.61699992	      2.19502284	      0.00000000	      1.03766668	      0.00000000	      4.27316354	     -0.00000000
      7.51400000	      0.00000000	      0.00000000	      0.00000000	      0.00000000	      0.00000000	      0.00000000	      0.00000000	      0.00000000	      0.00000000	    -35.59694796	    153.50665380	     -5.02055603	      2.19368705	      0.00000000	      1.03738853	      0.00000000	      4.12699984	     -0.00000000
      7.51500000	      0.00000000	      0.00000000	      0.00000000	      0.00000000	      0.00000000	      0.00000000	      0.00000000	      0.00000000	      0.00000000	    -33.22227031	    179.22426025	     -5.40678042	      2.19236060	      0.00000000	      1.03711178	      0.00000000	      3.98125721	     -0.00000000
      7.51600000	      0.00000000	      0.00000000	      0.00000000	      0.00000000	      0.00000000	      0.00000000	      0.00000000	      0.00000000	      0.00000000	    -30.84759266	    204.94186671	     -5.79300481	      2.19103414	      0.00000000	      1.03683504	      0.00000000	      3.83551457	     -0.00000000
      7.51700000	      0.00000000	      0.00000000	      0.00000000	      0.00000000	      0.00000000	      0.00000000	      0.00000000	      0.00000000	      0.00000000	    -28.57214239	    230.45491607	     -6.15786174	      2.18972104	      0.00000000	      1.03656118	      0.00000000	      3.69111894	     -0.00000000
      7.51800000	      0.00000000	      0.00000000	      0.00000000	      0.00000000	      0.00000000	      0.00000000	      0.00000000	      0.00000000	      0.00000000	    -26.49514689	    255.55885126	     -6.47998376	      2.18843462	      0.00000000	      1.03629308	      0.00000000	      3.54941728	     -0.00000000
      7.51900000	      0.00000000	      0.00000000	      0.00000000	      0.00000000	      0.00000000	      0.00000000	      0.00000000	      0.00000000	      0.00000000	    -24.41815139	    280.66278645	     -6.80210579	      2.18714821	      0.00000000	      1.03602498	      0.00000000	      3.40771563	     -0.00000000
      7.52000000	      0.00000000	      0.00000000	      0.00000000	      0.00000000	      0.00000000	      0.00000000	      0.00000000	      0.00000000	      0.00000000	    -22.34115589	    305.76672164	     -7.12422781	      2.18586180	      0.00000000	      1.03575688	      0.00000000	      3.26601398	     -0.00000000
      7.52100000	      0.00000000	      0.00000000	      0.00000000	      0.00000000	      0.00000000	      0.00000000	      0.00000000	      0.00000000	      0.00000000	    -20.65406632	    330.01812191	     -7.37027200	      2.18462575	      0.00000000	      1.03550142	      0.00000000	      3.13089530	     -0.00000000
      7.52200000	      0.00000000	      0.00000000	      0.00000000	      0.00000000	      0.00000000	      0.00000000	      0.00000000	      0.00000000	      0.00000000	    -18.96697674	    354.26952217	     -7.61631618	      2.18338970	      0.00000000	      1.03524595	      0.00000000	      2.99577662	     -0.00000000
      7.52300000	      0.00000000	      0.00000000	      0.00000000	      0.00000000	      0.00000000	      0.00000000	      0.00000000	      0.00000000	      0.00000000	    -17.27988717	    378.52092243	     -7.86236037	      2.18215365	      0.00000000	      1.03499049	      0.00000000	      2.86065794	     -0.00000000
      7.52400000	      0.00000000	      0.00000000	      0.00000000	      0.00000000	      0.00000000	      0.00000000	      0.00000000	      0.00000000	      0.00000000	    -15.90435087	    402.06858283	     -8.04999991	      2.18095667	      0.00000000	      1.03474573	      0.00000000	      2.73139948	     -0.00000000
      7.52500000	      0.00000000	      0.00000000	      0.00000000	      0.00000000	      0.00000000	      0.00000000	      0.00000000	      0.00000000	      0.00000000	    -14.68459119	    425.26437329	     -8.20843713	      2.17977923	      0.00000000	      1.03450633	      0.00000000	      2.60507114	     -0.00000000
      7.52600000	      0.00000000	      0.00000000	      0.00000000	      0.00000000	      0.00000000	      0.00000000	      0.00000000	      0.00000000	      0.00000000	    -13.46483151	    448.46016376	     -8.36687435	      2.17860179	      0.00000000	      1.03426693	      0.00000000	      2.47874280	     -0.00000000
      7.52700000	      0.00000000	      0.00000000	      0.00000000	      0.00000000	      0.00000000	      0.00000000	      0.00000000	      0.00000000	      0.00000000	    -12.42054563	    471.25032432	     -8.49255015	      2.17744584	      0.00000000	      1.03403379	      0.00000000	      2.35594420	     -0.00000000
      7.52800000	      0.00000000	      0.00000000	      0.00000000	      0.00000000	      0.00000000	      0.00000000	      0.00000000	      0.00000000	      0.00000000	    -11.72720731	    493.22922507	     -8.55270312	      2.17633286	      0.00000000	      1.03381320	      0.00000000	      2.24020508	     -0.00000000
      7.52900000	      0.00000000	      0.00000000	      0.00000000	      0.00000000	      0.00000000	      0.00000000	      0.00000000	      0.00000000	      0.00000000	    -11.03386900	    515.20812582	     -8.61285608	      2.17521988	      0.00000000	      1.03359260	      0.00000000	      2.12446596	     -0.00000000
      7.53000000	      0.00000000	      0.00000000	      0.00000000	      0.00000000	      0.00000000	      0.00000000	      0.00000000	      0.00000000	      0.00000000	    -10.34053069	    537.18702658	     -8.67300904	      2.17410690	      0.00000000	      1.03337201	      0.00000000	      2.00872684	     -0.00000000
      7.53100000	      0.00000000	      0.00000000	      0.00000000	      0.00000000	      0.00000000	      0.00000000	      0.00000000	      0.00000000	      0.00000000	    -10.21171407	    557.83397886	     -8.62553614	      2.17306153	      0.00000000	      1.03317220	      0.00000000	      1.90492092	      0.00000000
      7.53200000	      0.00000000	      0.00000000	      0.00000000	      0.00000000	      0.00000000	      0.00000000	      0.00000000	      0.00000000	      0.00000000	    -10.08289746	    578.48093115	     -8.57806324	      2.17201617	      0.00000000	      1.03297239	      0.00000000	      1.80111499	      0.00000000
      7.53300000	      0.00000000	      0.00000000	      0.00000000	      0.00000000	      0.00000000	      0.00000000	      0.00000000	      0.00000000	      0.00000000	     -9.95408084	    599.12788344	     -8.53059033	      2.17097080	      0.00000000	      1.03277258	      0.00000000	      1.69730906	      0.00000000
      7.53400000	      0.00000000	      0.00000000	      0.00000000	      0.00000000	      0.00000000	      0.00000000	      0.00000000	      0.00000000	      0.00000000	    -10.21190380	    618.84266335	     -8.40638722	      2.16997068	      0.00000000	      1.03258741	      0.00000000	      1.60203927	      0.00000000
      7.53500000	      0.00000000	      0.00000000	      0.00000000	      0.00000000	      0.00000000	      0.00000000	      0.00000000	      0.00000000	      0.00000000	    -10.66304655	    638.09135707	     -8.24381901	      2.16899319	      0.00000000	      1.03240956	      0.00000000	      1.51103755	      0.00000000
